# xmcd
#
# Track frame offsets:
#  150
#  16745
#  31339
#  44968
#  57737
#  88697
#  107944
#  122911
#  138824
#  162264
#  177194
#  192699
#  209687
#  224216
#
# Disc length: 3114 seconds
#
# Revision: 0
# Processed by: cddbd v1.5.1PL2 Copyright (c) Steve Scherf et al.
# Submitted via: Collectorz.com_Music_Collector 6.9
#
DISCID=e10c280e
DTITLE=The Dynatones - Sake That Mess - The Dynatones
DYEAR=1999
DGENRE=Blues
TTITLE0=Don't Cry No More
TTITLE1=Never Felt Like This Before
TTITLE2=Zig Zag Lightening
TTITLE3=Broadway Ain't Funky No More
TTITLE4=Memphis Women And Fried Chicken
TTITLE5=Cadillac Assembly Line
TTITLE6=Burning Fire
TTITLE7=Baby Don't Leave Me
TTITLE8=How Come My Bulldog Don't Bark
TTITLE9=Ace Of Spades
TTITLE10=Bring Her Back
TTITLE11=The Chokin' Kind
TTITLE12=Crying For My Baby
TTITLE13=Green Beetle Lounge
EXTD=
EXTT0=
EXTT1=
EXTT2=
EXTT3=
EXTT4=
EXTT5=
EXTT6=
EXTT7=
EXTT8=
EXTT9=
EXTT10=
EXTT11=
EXTT12=
EXTT13=
PLAYORDER=
